PathFileType  4	(X/Y/Z) C:\Users\antoi\Documents\MyRepositories\mobilecap\ResultsAnalysis
DataRate	CameraRate	NumFrames	NumMarkers	Units	OrigDataRate	OrigDataStartFrame	OrigNumFrames
100.0	100.0	4	51	mm	100.0	169	269
Frame#	Time	r_knee			r_shank_antsup			r_ankle			r_calc			r_5meta			r_toe			L_knee			L_shank_antsup			L_ankle			L_calc			L_5meta			L_toe			r_sh2			r_sh3			r_sh4			L_sh2			L_sh3			r_thigh1			r_thigh2			r_thigh3			r_thigh4			r_thigh5			L_thigh1			L_thigh2			L_thigh3			L_thigh4			r.ASIS			r.PSIS			L.ASIS			L.PSIS			C7			R_Shoulder			L_Shoulder			R_Sternum			L_Sternum			R_humerus			R_elbow_med			R_elbow_lat			R_forearm			R_wrist_radius			R_wrist_ulna			L_humerus			L_elbow_med			L_elbow_lat			L_forearm			L_wrist_radius			L_wrist_ulna			R_HJC			L_HJC			R_HJC_reg			L_HJC_reg			
		X1	Y1	Z1	X2	Y2	Z2	X3	Y3	Z3	X4	Y4	Z4	X5	Y5	Z5	X6	Y6	Z6	X7	Y7	Z7	X8	Y8	Z8	X9	Y9	Z9	X10	Y10	Z10	X11	Y11	Z11	X12	Y12	Z12	X13	Y13	Z13	X14	Y14	Z14	X15	Y15	Z15	X16	Y16	Z16	X17	Y17	Z17	X18	Y18	Z18	X19	Y19	Z19	X20	Y20	Z20	X21	Y21	Z21	X22	Y22	Z22	X23	Y23	Z23	X24	Y24	Z24	X25	Y25	Z25	X26	Y26	Z26	X27	Y27	Z27	X28	Y28	Z28	X29	Y29	Z29	X30	Y30	Z30	X31	Y31	Z31	X32	Y32	Z32	X33	Y33	Z33	X34	Y34	Z34	X35	Y35	Z35	X36	Y36	Z36	X37	Y37	Z37	X38	Y38	Z38	X39	Y39	Z39	X40	Y40	Z40	X41	Y41	Z41	X42	Y42	Z42	X43	Y43	Z43	X44	Y44	Z44	X45	Y45	Z45	X46	Y46	Z46	X47	Y47	Z47	X48	Y48	Z48	X49	Y49	Z49	X50	Y50	Z50	X51	Y51	Z51	

169	1.68000000	-55.85325	415.73814	-425.90239	-42.84919	319.95269	-420.18425	-283.81975	99.42043	-416.65517	-353.45626	62.87204	-463.98705	-186.68160	45.92223	-351.61447	-143.15508	69.50397	-401.74886	-23.24980	420.30856	-739.64820	-1.72063	326.78260	-726.87400	-242.11963	99.71184	-761.14642	-327.15572	55.94252	-713.16077	-155.25093	41.18261	-808.76252	-101.21894	61.73328	-755.60234	-114.11859	229.34918	-418.78628	-98.21820	365.23357	-390.68899	-172.31233	278.78173	-382.31906	-57.48452	384.17507	-769.79250	-127.97535	286.76634	-789.20673	-283.88347	554.77934	-423.30847	-180.67366	524.35640	-436.01352	-170.51818	465.55455	-399.41027	-315.96016	446.46881	-409.01187	-202.53292	419.30841	-416.20636	-218.04296	569.62425	-756.79307	-89.26668	532.50458	-720.96724	-237.10898	476.11270	-809.38234	-116.33595	437.68361	-767.40991	-287.55178	582.16800	-476.44652	-459.84280	672.44141	-575.10047	-263.89464	589.83360	-728.12165	-446.57500	677.10091	-667.01533	-136.33140	1021.42279	-580.12790	-86.09602	945.66902	-408.36692	-34.23822	944.97689	-710.30844	-57.34327	893.60903	-542.72731	-51.82759	896.86658	-586.01508	-151.69592	833.30547	-344.90814	-340.05153	726.38486	-378.83731	-346.33859	756.12181	-312.59618	-270.15253	705.89986	-280.32419	-148.17801	602.02466	-294.75187	-174.30735	582.74151	-257.25732	-90.70293	836.33094	-806.22085	-281.88005	742.66331	-836.75466	-244.74160	766.33637	-909.43077	-185.78483	716.43638	-905.34610	-83.99884	591.79337	-864.78350	-111.74880	570.81089	-902.06853	-387.27853	522.85242	-514.77374	-365.61997	528.86278	-703.00019	-376.47010	527.44356	-527.98375	-352.65628	535.80943	-692.97613	
170	1.69000000	-55.28776	415.27069	-427.14899	-42.34888	319.64304	-420.96395	-283.96532	99.34563	-416.52330	-353.55478	62.79581	-463.78507	-186.74691	45.70493	-351.62197	-143.15924	69.49214	-401.68102	-23.29427	420.49860	-739.07248	-1.77913	327.11676	-726.50744	-242.12294	99.80788	-761.28275	-327.14041	55.92041	-713.19786	-155.22985	41.15779	-808.73152	-101.18290	61.75702	-755.50624	-113.78539	228.99622	-419.40093	-97.80603	365.12018	-391.95345	-171.68958	279.19615	-382.92972	-57.68748	384.65382	-769.20320	-128.09367	287.00842	-788.41469	-284.40535	551.46359	-423.63993	-181.98119	521.85872	-436.18501	-170.64945	463.25299	-400.75116	-316.05190	443.12177	-409.37392	-202.27200	416.28984	-417.45620	-219.31582	568.22936	-757.35862	-89.48617	530.75042	-720.52267	-236.90926	474.33465	-808.86575	-116.15859	436.74818	-766.72411	-286.67982	577.30989	-475.59617	-457.89784	669.17271	-574.26168	-263.60853	586.61954	-728.59719	-445.06103	674.67761	-666.30398	-129.36786	1014.16417	-581.33873	-79.11478	936.66014	-409.52833	-29.00789	934.95868	-710.46804	-52.75255	884.79849	-543.99195	-47.29080	887.77464	-587.40474	-140.24956	819.18198	-347.78717	-322.23053	702.36514	-381.43616	-329.21280	729.01975	-313.92566	-248.10137	684.88113	-285.44489	-119.38159	591.42774	-307.08965	-141.95908	570.17437	-268.08378	-81.18765	819.92220	-803.41625	-262.95688	712.21133	-830.83939	-228.24489	734.44355	-903.68082	-165.12528	689.74068	-895.87755	-53.97314	577.53061	-846.80605	-79.56606	552.44179	-883.54126	-386.76132	518.95367	-514.95812	-365.36009	526.03298	-703.17449	-375.93036	522.76975	-527.45578	-352.79268	532.68826	-693.34310	
171	1.70000000	-54.69235	414.99591	-428.27092	-41.72862	319.53052	-421.46958	-283.95831	99.43918	-416.31898	-353.59596	62.85175	-463.61553	-186.71431	45.51223	-351.55597	-143.09886	69.46027	-401.61229	-23.67235	420.66895	-739.23252	-2.05272	327.50230	-726.72219	-242.22786	99.84021	-761.60368	-327.17410	55.81594	-713.35679	-155.24540	41.09119	-808.80163	-101.22717	61.82965	-755.58464	-113.39832	228.88688	-419.69933	-96.97761	365.03595	-392.64079	-171.45268	278.97378	-383.89351	-58.20471	385.16081	-769.24515	-128.50963	287.14807	-787.98216	-284.81063	548.23510	-423.95394	-182.69257	519.67220	-436.35672	-170.40211	460.69105	-402.36869	-315.86395	440.04156	-409.90226	-201.93603	413.81290	-418.59592	-220.55047	567.16418	-757.96667	-89.67455	530.27106	-720.22480	-236.81121	472.99811	-808.62334	-115.83725	435.67234	-765.63828	-285.79635	572.77510	-474.88884	-455.99903	666.56084	-572.88896	-263.36922	584.36831	-729.24766	-443.70148	672.79927	-665.33909	-121.33122	1008.39280	-581.98848	-72.83361	928.60511	-410.64409	-25.04552	925.95959	-710.89681	-48.71895	877.19518	-545.34115	-43.42918	879.86669	-588.95559	-127.93278	805.91826	-350.91813	-303.80631	680.39892	-384.07504	-309.87603	702.42916	-315.23631	-225.02580	664.85805	-290.94878	-90.67835	582.52976	-320.11065	-109.85917	559.05550	-280.28023	-70.88898	804.48308	-800.00310	-242.57596	683.12938	-823.53410	-209.32791	703.30351	-896.74516	-142.50286	664.70321	-885.45228	-24.26500	565.55716	-826.99163	-46.58620	537.02799	-864.43019	-386.15634	515.45676	-515.24858	-365.22362	524.04813	-703.45358	-375.44439	519.05594	-526.83322	-353.24852	530.31443	-693.69189	
172	1.71000000	-54.10395	414.60098	-429.12729	-41.10825	319.35000	-422.10221	-283.80567	99.62999	-416.11027	-353.58061	62.99145	-463.47265	-186.54603	45.33792	-351.51472	-143.00251	69.39041	-401.55080	-24.38160	420.64897	-739.69681	-2.51459	327.80808	-726.97436	-242.35971	99.80417	-761.97091	-327.19111	55.61137	-713.40993	-155.24877	40.98651	-808.92187	-101.27824	61.90440	-755.77495	-112.93336	228.82540	-419.86418	-95.89101	365.05583	-393.01962	-171.21663	278.52763	-384.74774	-58.86257	385.34943	-769.18632	-129.04486	287.17032	-788.06023	-285.06934	545.83537	-423.62937	-182.44334	517.95716	-436.83231	-169.89588	458.03481	-404.04321	-315.49209	437.59832	-410.32523	-201.47502	411.86243	-419.51696	-220.84178	566.46640	-757.89780	-89.81504	530.51833	-720.08501	-236.90410	472.16157	-808.83456	-115.90692	434.78049	-765.32822	-284.98603	569.08135	-474.21317	-454.15652	664.60621	-571.52403	-263.15436	582.70789	-730.03932	-442.48093	671.37751	-664.31863	-114.91727	1003.08780	-583.30170	-67.04547	921.34309	-411.89487	-21.89254	917.87524	-711.58378	-45.35980	870.77279	-546.69781	-40.19929	873.02488	-590.56232	-114.94018	793.74618	-354.47519	-285.09631	660.70179	-386.51635	-288.45847	677.21860	-316.90795	-201.08859	646.23284	-296.78049	-62.51887	575.41497	-333.89978	-78.16502	549.87764	-293.56304	-59.84916	790.29711	-795.55578	-221.77450	655.97773	-815.09789	-188.02356	674.10648	-888.31106	-118.57735	642.34867	-873.60248	4.68310	556.72270	-805.73644	-13.37600	524.91884	-844.09171	-385.51269	512.68368	-515.45204	-365.14113	522.61339	-703.65626	-374.98383	516.21958	-526.06020	-353.85726	528.47517	-693.98909	
